<?xml version="1.0" encoding="UTF-8" standalone="no"?>
<!-- Created with Inkscape (http://www.inkscape.org/) -->

<svg
   width="210mm"
   height="297mm"
   viewBox="0 0 210 297"
   version="1.1"
   id="svg1"
   xml:space="preserve"
   xmlns="http://www.w3.org/2000/svg"
   xmlns:svg="http://www.w3.org/2000/svg"><defs
     id="defs1" /><g
     id="layer1"><g
       id="g46"
       transform="matrix(4.6409591,0,0,4.6409591,-619.59328,-1555.8243)"><g
         id="g47"
         transform="matrix(0.97696683,0,0,0.97696683,307.29884,106.2075)"><g
           id="g45"
           transform="translate(2.00685,11.265345)"><path
             d="m -139.31313,243.9061 0.6408,3.26491 a 20.461639,20.461639 0 0 1 2.17713,9.18601 20.461639,20.461639 0 0 1 -20.46337,20.46025 20.461639,20.461639 0 0 1 -12.21423,-4.04678 3.0836897,3.1126909 0 0 1 0.26974,-0.26769 20.085435,20.085435 0 0 0 11.94449,3.93826 20.085435,20.085435 0 0 0 20.08715,-20.08404 20.085435,20.085435 0 0 0 -2.29287,-9.3214 l -2.41122,-0.71933 a 18.409699,18.409699 0 0 1 3.06699,10.17405 18.409699,18.409699 0 0 1 -18.40974,18.40973 18.409699,18.409699 0 0 1 -9.44437,-2.60708 c 0.75423,-0.45967 1.61591,-0.88286 2.59569,-1.23351 l -9.38754,-2.48305 2.04174,8.90591 c 0,0 0.56076,-1.44067 2.09342,-3.05149 a 21.640248,21.640248 0 0 0 12.10106,3.70003 21.640248,21.640248 0 0 0 21.64055,-21.64054 21.640248,21.640248 0 0 0 -4.03542,-12.58424 z"
             style="display:inline;fill:#0a8af6;stroke-width:0.101772"
             id="path29" /><path
             d="m -156.91826,234.85032 a 21.640248,21.640248 0 0 0 -21.64001,21.64002 21.640248,21.640248 0 0 0 4.73925,13.51442 l -0.71728,-3.13779 a 20.446603,20.446603 0 0 1 -2.82825,-10.37508 20.446603,20.446603 0 0 1 20.44526,-20.44784 20.446603,20.446603 0 0 1 13.40073,5.00279 3.1104035,3.0814236 77.337558 0 1 -0.25011,0.28061 20.070675,20.070675 0 0 0 -13.15062,-4.9072 20.070675,20.070675 0 0 0 -20.06958,20.07164 20.070675,20.070675 0 0 0 2.91972,10.42366 l 2.44378,0.64854 a 18.409699,18.409699 0 0 1 -3.70261,-11.07375 18.409699,18.409699 0 0 1 18.40972,-18.40973 18.409699,18.409699 0 0 1 10.53993,3.31556 c -0.87594,0.59358 -1.914,1.1442 -3.13675,1.58182 l 9.38754,2.48305 -2.04225,-8.90591 c 0,0 -0.47023,1.20909 -1.72755,2.65048 a 21.640248,21.640248 0 0 0 -13.02092,-4.35529 z"
             style="fill:#0a8af6;stroke-width:0.101772"
             id="path17" /><path
             id="path40"
             style="display:inline;fill:#f6760a;stroke-width:3.90784"
             d="m -156.91825,238.89917 c -9.71535,2.8e-4 -17.59089,7.87584 -17.59117,17.59118 1.4e-4,4.256 1.54291,8.36767 4.34289,11.57294 l 8.08839,2.87992 c 0,0 -1.04823,0.51207 -2.42569,1.41852 2.36865,1.1322 4.96025,1.72022 7.58558,1.72031 9.71536,-2.8e-4 17.59141,-7.87634 17.59169,-17.59169 -8e-5,-3.82994 -1.24998,-7.55481 -3.55999,-10.60969 l -8.44961,-2.77296 c 0,0 1.42497,-0.6943 3.13624,-1.89601 -2.65571,-1.51534 -5.66071,-2.31246 -8.71833,-2.31252 z m -4.78885,1.62781 c 0.0978,-0.004 0.19065,-0.004 0.27905,0.002 l 0.1943,0.52969 -0.032,0.0119 c -0.16814,-0.0617 -0.36982,-0.0897 -0.60565,-0.0837 -0.23487,0.004 -0.4617,0.0459 -0.68057,0.12609 -0.24002,0.088 -0.41513,0.20844 -0.52504,0.36173 -0.10839,0.15274 -0.13402,0.30758 -0.0765,0.46457 0.0515,0.14039 0.12818,0.23749 0.22996,0.29094 0.10178,0.0534 0.25196,0.0681 0.4501,0.0434 0.10436,-0.0143 0.2511,-0.0393 0.44029,-0.0744 0.18918,-0.0351 0.35139,-0.0592 0.48679,-0.0729 0.27492,-0.0254 0.5004,0.006 0.67644,0.0935 0.17605,0.0879 0.30835,0.2525 0.39688,0.49403 0.0481,0.13132 0.065,0.27275 0.0501,0.42374 -0.0133,0.15044 -0.0589,0.29017 -0.13642,0.41962 -0.0853,0.14087 -0.19895,0.26834 -0.34055,0.38188 -0.14009,0.11299 -0.32341,0.21053 -0.54984,0.29353 -0.24303,0.0891 -0.47028,0.14702 -0.68161,0.17311 -0.20982,0.0255 -0.43115,0.0305 -0.66456,0.015 l -0.20619,-0.56172 0.032,-0.0114 c 0.22259,0.0794 0.45945,0.11653 0.71107,0.11162 0.25163,-0.005 0.47556,-0.0433 0.6718,-0.11524 0.27774,-0.1018 0.47486,-0.23318 0.59066,-0.39377 0.1173,-0.16115 0.14372,-0.32819 0.0801,-0.50178 -0.0548,-0.14944 -0.13206,-0.24607 -0.23203,-0.2899 -0.0985,-0.0444 -0.22943,-0.0589 -0.39326,-0.0434 -0.12428,0.0113 -0.25633,0.0314 -0.39636,0.0605 -0.13852,0.0285 -0.28748,0.055 -0.44648,0.0791 -0.32212,0.0462 -0.58366,0.0192 -0.78445,-0.0801 -0.19984,-0.10141 -0.34493,-0.27485 -0.43512,-0.5209 -0.10346,-0.28228 -0.0688,-0.55718 0.10387,-0.82423 0.17211,-0.26857 0.44193,-0.47017 0.80874,-0.60462 0.23699,-0.0869 0.46262,-0.14385 0.67696,-0.17377 0.21434,-0.0299 0.44159,-0.0247 0.68159,0.0155 l 0.20619,0.56172 z"
             /><path
           id="path45"
           style="opacity:1;fill:#0c64b3;fill-opacity:1;stroke-width:0.264583"
           d="m -154.91088,256.48402 a 11.272092,11.272092 0 0 0 -11.27218,11.27166 11.272092,11.272092 0 0 0 11.27218,11.27218 11.272092,11.272092 0 0 0 11.27167,-11.27218 11.272092,11.272092 0 0 0 -11.27167,-11.27166 z m -0.25683,3.41064 h 0.51263 c 0.95552,0 1.72496,0.76943 1.72496,1.72496 v 4.21628 h 4.20801 c 0.92626,0 1.67225,0.74548 1.67225,1.67174 v 0.49661 c 0,0.92627 -0.74599,1.67225 -1.67225,1.67225 h -4.20801 v 4.21628 c 0,0.95553 -0.76944,1.72444 -1.72496,1.72444 h -0.51263 c -0.95552,0 -1.72444,-0.76891 -1.72444,-1.72444 v -4.21628 h -4.20853 c -0.92626,0 -1.67173,-0.74598 -1.67173,-1.67225 v -0.49661 c 0,-0.92626 0.74547,-1.67174 1.67173,-1.67174 h 4.20853 v -4.21628 c 0,-0.95553 0.76892,-1.72496 1.72444,-1.72496 z" /></g></g></g></svg>